# xmcd
#
# Track frame offsets:
#	150
#	32287
#	56460
#	76522
#	93045
#	137292
#	154827
#	168032
#	206527
#	227352
#	248690
#
# Disc length: 3459
#
# Revision: 2
# Processed by: cddbd v1.5.1PL0 Copyright (c) Steve Scherf et al.
# Submitted via: CDex 1.51
# Normalized: r0:TSWAP
#
DISCID=650d810b
DTITLE=Jaco Pastorius - not fusion but true jazz
DYEAR=1900
DGENRE=Jazz
TTITLE0=Ian Hunter - All American Alien Boy
TTITLE1=Herbie Hancock - 4 AM
TTITLE2=Weather Report - DARA FACTOR TWO
TTITLE3=Jimmy Cliff - BROWN EYES
TTITLE4=Al Di Meola - SUITE - GOLDEN DAWN
TTITLE5=Jaco Pastorius - COME ON, COME OVER
TTITLE6=Tom Scott - LOST INSIDE THE LOVE OF YOU
TTITLE7=Herbie Hancock - GOOD QUESTION
TTITLE8=Weather Report - CANNON BALL
TTITLE9=Ian Hunter - APATHY 83
TTITLE10=Jaco Pastorius - PORTRAIT OF TRACY
EXTD=
EXTT0=
EXTT1=
EXTT2=
EXTT3=
EXTT4=
EXTT5=
EXTT6=
EXTT7=
EXTT8=
EXTT9=
EXTT10=
PLAYORDER=
